<svg width="24" height="24" viewBox="0 0 24 24" fill="none" xmlns="http://www.w3.org/2000/svg">
<path d="M14.6811 18.6375C14.4911 18.6375 14.3011 18.5675 14.1511 18.4175C13.8611 18.1275 13.8611 17.6475 14.1511 17.3575L19.6911 11.8175L14.1511 6.2775C13.8611 5.9875 13.8611 5.5075 14.1511 5.2175C14.4411 4.9275 14.9211 4.9275 15.2111 5.2175L21.2811 11.2875C21.5711 11.5775 21.5711 12.0575 21.2811 12.3475L15.2111 18.4175C15.0611 18.5675 14.8711 18.6375 14.6811 18.6375Z" fill="#111111"/>
<path d="M20.58 12.5649L3.75 12.5649C3.34 12.5649 3 12.2249 3 11.8149C3 11.4049 3.34 11.0649 3.75 11.0649L20.58 11.0649C20.99 11.0649 21.33 11.4049 21.33 11.8149C21.33 12.2249 20.99 12.5649 20.58 12.5649Z" fill="#111111"/>
</svg>
