<svg width="25" height="24" viewBox="0 0 25 24" fill="none" xmlns="http://www.w3.org/2000/svg">
<path d="M10.0728 18.8201C10.2628 18.8201 10.4528 18.7501 10.6028 18.6001C10.8928 18.3101 10.8928 17.8301 10.6028 17.5401L5.06281 12.0001L10.6028 6.46012C10.8928 6.17012 10.8928 5.69012 10.6028 5.40012C10.3128 5.11012 9.83281 5.11012 9.54281 5.40012L3.47281 11.4701C3.18281 11.7601 3.18281 12.2401 3.47281 12.5301L9.54281 18.6001C9.69281 18.7501 9.88281 18.8201 10.0728 18.8201Z" fill="#111111"/>
<path d="M4.17 12.75H21C21.41 12.75 21.75 12.41 21.75 12C21.75 11.59 21.41 11.25 21 11.25H4.17C3.76 11.25 3.42 11.59 3.42 12C3.42 12.41 3.76 12.75 4.17 12.75Z" fill="#111111"/>
</svg>
