<svg width="24" height="24" viewBox="0 0 24 24" fill="none" xmlns="http://www.w3.org/2000/svg">
<path d="M12 21.6506C11.69 21.6506 11.39 21.6106 11.14 21.5206C7.32 20.2106 1.25 15.5606 1.25 8.69059C1.25 5.19059 4.08 2.35059 7.56 2.35059C9.25 2.35059 10.83 3.01059 12 4.19059C13.17 3.01059 14.75 2.35059 16.44 2.35059C19.92 2.35059 22.75 5.20059 22.75 8.69059C22.75 15.5706 16.68 20.2106 12.86 21.5206C12.61 21.6106 12.31 21.6506 12 21.6506ZM7.56 3.85059C4.91 3.85059 2.75 6.02059 2.75 8.69059C2.75 15.5206 9.32 19.3206 11.63 20.1106C11.81 20.1706 12.2 20.1706 12.38 20.1106C14.68 19.3206 21.26 15.5306 21.26 8.69059C21.26 6.02059 19.1 3.85059 16.45 3.85059C14.93 3.85059 13.52 4.56059 12.61 5.79059C12.33 6.17059 11.69 6.17059 11.41 5.79059C10.48 4.55059 9.08 3.85059 7.56 3.85059Z" fill="#111111"/>
</svg>
