<svg width="155" height="18" viewBox="0 0 155 18" fill="none" xmlns="http://www.w3.org/2000/svg">
<g clip-path="url(#clip0_2198_1588)">
<path d="M80.9333 6.40039H85.9583C86.5176 6.40039 87.054 6.62258 87.4495 7.0181C87.845 7.41361 88.0673 7.95006 88.0673 8.5094C88.0673 9.06874 87.845 9.60516 87.4495 10.0007C87.054 10.3962 86.5176 10.6184 85.9583 10.6184H80.9333C80.7821 10.6178 80.6373 10.5575 80.5305 10.4505C80.4236 10.3435 80.3635 10.1986 80.3633 10.0474V6.9704C80.3638 6.81939 80.424 6.67471 80.5308 6.56793C80.6375 6.46115 80.7823 6.40092 80.9333 6.40039ZM85.9423 9.18839C86.0766 9.18839 86.2079 9.14858 86.3195 9.07397C86.4312 8.99937 86.5182 8.8933 86.5696 8.76923C86.621 8.64515 86.6344 8.50864 86.6082 8.37692C86.582 8.24521 86.5173 8.12423 86.4224 8.02927C86.3274 7.93431 86.2064 7.86964 86.0747 7.84344C85.943 7.81725 85.8065 7.83069 85.6824 7.88208C85.5584 7.93347 85.4523 8.02051 85.3777 8.13217C85.3031 8.24383 85.2632 8.37511 85.2632 8.5094C85.2632 8.68948 85.3348 8.86216 85.4622 8.9895C85.5895 9.11684 85.7622 9.18839 85.9423 9.18839Z" fill="#111111"/>
<path d="M20.947 7.80164H20.1879C20.0177 7.8019 19.8546 7.86962 19.7343 7.98996C19.6139 8.1103 19.5462 8.27345 19.546 8.44363V14.4576H2.04596V1.15762C2.0457 0.987436 1.97795 0.82429 1.8576 0.703949C1.73726 0.583608 1.57412 0.515889 1.40393 0.515625H0.645935C0.475747 0.515889 0.312602 0.583608 0.192261 0.703949C0.0719197 0.82429 0.00417072 0.987436 0.00390625 1.15762V14.7226C0.00443561 15.1943 0.192061 15.6465 0.525574 15.98C0.859086 16.3135 1.3113 16.5011 1.78296 16.5016H19.8099C20.2816 16.5011 20.7338 16.3135 21.0673 15.98C21.4008 15.6465 21.5884 15.1943 21.5889 14.7226V8.44562C21.5891 8.36118 21.5725 8.27756 21.5403 8.19949C21.5082 8.12143 21.4609 8.05046 21.4013 7.99066C21.3417 7.93086 21.2709 7.88339 21.1929 7.85095C21.115 7.81852 21.0314 7.80177 20.947 7.80164Z" fill="#111111"/>
<path d="M40.4127 0.511719H27.3217C27.2374 0.511719 27.1539 0.528314 27.076 0.560577C26.9981 0.592841 26.9274 0.640122 26.8677 0.699738C26.8081 0.759353 26.7608 0.830129 26.7286 0.90802C26.6963 0.985911 26.6797 1.06941 26.6797 1.15372V1.91171C26.68 2.0819 26.7477 2.24505 26.868 2.36539C26.9884 2.48573 27.1515 2.55345 27.3217 2.55371H40.2857C41.0801 2.53311 41.8705 2.67179 42.6104 2.96155C43.3503 3.2513 44.0246 3.68627 44.5938 4.24081C45.1629 4.79536 45.6152 5.45826 45.924 6.1904C46.2328 6.92254 46.392 7.70911 46.392 8.50372C46.392 9.29834 46.2328 10.0849 45.924 10.817C45.6152 11.5492 45.1629 12.2121 44.5938 12.7666C44.0246 13.3211 43.3503 13.7561 42.6104 14.0459C41.8705 14.3357 41.0801 14.4743 40.2857 14.4537H28.7287V8.43872C28.7284 8.26853 28.6607 8.10539 28.5403 7.98505C28.42 7.86471 28.2569 7.79699 28.0867 7.79672H27.3287C27.1585 7.79699 26.9953 7.86471 26.875 7.98505C26.7547 8.10539 26.687 8.26853 26.6867 8.43872V14.7167C26.6872 15.1884 26.8748 15.6405 27.2083 15.9741C27.5418 16.3076 27.994 16.4952 28.4657 16.4957H40.4077C42.4935 16.4933 44.4932 15.6638 45.9682 14.189C47.4432 12.7142 48.273 10.7145 48.2757 8.62872V8.3757C48.2725 6.29119 47.4431 4.29295 45.9692 2.81888C44.4954 1.34481 42.4972 0.515157 40.4127 0.511719Z" fill="#111111"/>
<path d="M73.1821 0.5H55.1501C54.6783 0.50053 54.2259 0.688275 53.8924 1.022C53.5589 1.35573 53.3714 1.80817 53.3711 2.28V15.858C53.3714 16.0282 53.4391 16.1913 53.5594 16.3117C53.6798 16.432 53.8429 16.4997 54.0131 16.5H54.7711C54.9411 16.4995 55.104 16.4317 55.2241 16.3113C55.3442 16.191 55.4118 16.028 55.4121 15.858V9.832H72.9181V15.855C72.9184 16.0252 72.9861 16.1883 73.1064 16.3087C73.2268 16.429 73.3899 16.4967 73.5601 16.497H74.3181C74.4883 16.4967 74.6514 16.429 74.7718 16.3087C74.8921 16.1883 74.9598 16.0252 74.9601 15.855V9.57001C74.9596 9.09835 74.772 8.64616 74.4385 8.31265C74.105 7.97914 73.6527 7.79154 73.1811 7.79102H55.4131V6.49802H73.1821C73.6538 6.49749 74.1059 6.30989 74.4395 5.97638C74.773 5.64287 74.9606 5.19065 74.9611 4.71899V2.27802C74.9601 1.80661 74.7723 1.35482 74.4388 1.02158C74.1054 0.688336 73.6535 0.500792 73.1821 0.5ZM72.9191 4.45801H55.4131V2.54199H72.9201L72.9191 4.45801Z" fill="#111111"/>
<path d="M126.539 0.511719H108.509C108.038 0.512248 107.586 0.699843 107.252 1.03336C106.919 1.36687 106.731 1.81905 106.73 2.29071V5.1037C106.731 5.27389 106.798 5.43703 106.919 5.55737C107.039 5.67771 107.202 5.74546 107.372 5.74573H108.13C108.301 5.74546 108.464 5.67771 108.584 5.55737C108.704 5.43703 108.772 5.27389 108.772 5.1037V2.55371H126.272V7.79871H108.509C108.038 7.79924 107.586 7.98683 107.252 8.32034C106.919 8.65386 106.731 9.10604 106.73 9.5777V14.7197C106.731 15.1914 106.919 15.6436 107.252 15.9771C107.586 16.3106 108.038 16.4982 108.509 16.4987H126.539C127.011 16.4982 127.463 16.3106 127.797 15.9771C128.13 15.6436 128.318 15.1914 128.318 14.7197V2.29172C128.318 1.81989 128.131 1.36745 127.797 1.03372C127.464 0.699993 127.011 0.512249 126.539 0.511719ZM126.276 9.84171V14.4577H108.776V9.84171H126.276Z" fill="#111111"/>
<path d="M145.215 0.5H143.193C140.6 0.504495 138.114 1.53679 136.28 3.3707C134.446 5.20461 133.414 7.69059 133.41 10.284V15.858C133.41 16.0282 133.478 16.1913 133.599 16.3117C133.719 16.432 133.882 16.4997 134.052 16.5H134.81C134.98 16.4997 135.144 16.432 135.264 16.3117C135.384 16.1913 135.452 16.0282 135.452 15.858V10.41C135.455 8.34768 136.266 6.36862 137.712 4.89786C139.157 3.4271 141.122 2.58197 143.184 2.54401V15.858C143.184 16.0282 143.252 16.1913 143.372 16.3117C143.493 16.432 143.656 16.4997 143.826 16.5H144.584C144.754 16.4997 144.918 16.432 145.038 16.3117C145.158 16.1913 145.226 16.0282 145.226 15.858V2.54401C147.288 2.58223 149.253 3.42746 150.698 4.89819C152.144 6.36892 152.955 8.34785 152.957 10.41V15.858C152.957 16.0281 153.025 16.1912 153.145 16.3116C153.265 16.432 153.428 16.4997 153.598 16.5H154.357C154.527 16.4997 154.691 16.432 154.811 16.3117C154.931 16.1913 154.999 16.0282 154.999 15.858V10.283C154.996 7.68913 153.965 5.20232 152.13 3.36826C150.296 1.53419 147.809 0.502647 145.215 0.5Z" fill="#111111"/>
<path d="M93.3331 0.514709H81.0121C80.8421 0.515238 80.6792 0.583087 80.5591 0.7034C80.439 0.823712 80.3714 0.986693 80.3711 1.15671V1.9147C80.3711 2.0848 80.4386 2.24795 80.5588 2.36832C80.679 2.48869 80.842 2.55644 81.0121 2.5567H93.1891C94.006 2.5604 94.8141 2.7257 95.5668 3.04303C96.3196 3.36036 97.0021 3.82346 97.5751 4.4057C98.1257 4.95622 98.5604 5.61155 98.8535 6.33295C99.1465 7.05434 99.2918 7.82715 99.2811 8.60571C99.2472 10.1632 98.6065 11.6458 97.4955 12.7378C96.3844 13.8298 94.8909 14.4448 93.3331 14.4517H81.0121C80.842 14.452 80.679 14.5197 80.5588 14.6401C80.4386 14.7605 80.3711 14.9236 80.3711 15.0937V15.8527C80.3714 16.0226 80.439 16.1855 80.5591 16.3057C80.6793 16.4258 80.8422 16.4934 81.0121 16.4937H93.1721C95.267 16.5004 97.2837 15.6984 98.8019 14.2548C100.32 12.8111 101.222 10.8373 101.321 8.74472C101.352 7.6758 101.169 6.61148 100.781 5.61469C100.394 4.61789 99.8111 3.70883 99.0665 2.94128C98.3219 2.17374 97.4309 1.56327 96.4464 1.14597C95.4618 0.728661 94.4035 0.513003 93.3341 0.511719L93.3331 0.514709Z" fill="#111111"/>
</g>
<defs>
<clipPath id="clip0_2198_1588">
<rect width="155" height="17" fill="white" transform="translate(0 0.5)"/>
</clipPath>
</defs>
</svg>
