<svg width="20" height="16" viewBox="0 0 20 16" fill="none" xmlns="http://www.w3.org/2000/svg">
<path d="M12.9998 15.75H6.99982C2.37982 15.75 1.51982 13.6 1.29982 11.51L0.549818 5.52C0.439818 4.44 0.399818 2.89 1.44982 1.73C2.34982 0.73 3.83982 0.25 5.99982 0.25H13.9998C16.1698 0.25 17.6598 0.74 18.5498 1.73C19.5898 2.89 19.5598 4.44 19.4498 5.5L18.6998 11.51C18.4798 13.6 17.6198 15.75 12.9998 15.75ZM5.99982 1.75C4.30982 1.75 3.14982 2.08 2.55982 2.74C2.06982 3.28 1.90982 4.11 2.03982 5.35L2.78982 11.34C2.95982 12.94 3.39982 14.26 6.99982 14.26H12.9998C16.5998 14.26 17.0398 12.95 17.2098 11.36L17.9598 5.35C18.0898 4.13 17.9298 3.3 17.4398 2.75C16.8498 2.08 15.6898 1.75 13.9998 1.75H5.99982Z" fill="#111111"/>
</svg>
